<svg style="display: none" xmlns="http://www.w3.org/2000/svg">
    <symbol fill="none" viewBox="0 0 28 11" id="end-call">
        <path
            d="M8.02312 8.45445C8.55066 8.03681 8.8584 7.39936 8.8584 6.72894V3.87139C12.1775 2.79432 15.7715 2.78333 19.1016 3.87139V6.73993C19.1016 7.41035 19.4093 8.0478 19.9369 8.46544L22.124 10.2019C23.0032 10.8944 24.2562 10.8284 25.0475 10.0371L26.3883 8.69624C27.2676 7.817 27.2676 6.35526 26.3334 5.53097C19.2884 -0.689684 8.67156 -0.689684 1.62662 5.53097C0.692421 6.35526 0.692421 7.817 1.57167 8.69624L2.91251 10.0371C3.69284 10.8284 4.94576 10.8944 5.82501 10.2019V10.2019L8.02312 8.45445Z"
            fill="currentColor"
        />
    </symbol>
    <symbol fill="none" viewBox="0 0 10 18" id="facebook">
        <g clip-path="url(#clip0_2_906)">
            <path
                d="M2.82161 9.72246H0.141602V6.63832H2.82161V4.36386C2.82161 1.72436 4.44393 0.287109 6.81346 0.287109C7.94849 0.287109 8.92399 0.371083 9.20827 0.408616V3.16704L7.56488 3.16778C6.2762 3.16778 6.02668 3.77629 6.02668 4.66923V6.63832H9.10006L8.69989 9.72246H6.02667V17.6362H2.82161V9.72246Z"
                fill="currentColor"
            ></path>
        </g>
        <defs>
            <clipPath id="clip0_2_906"></clipPath>
        </defs>
    </symbol>
    <symbol fill="none" viewBox="0 0 20 19" id="github">
        <g clip-path="url(#clip0_2_919)">
            <path
                fill-rule="evenodd"
                clip-rule="evenodd"
                d="M0.417969 9.23377C0.417969 13.312 3.08949 16.7747 6.76768 18.0058C7.23229 18.0828 7.38717 17.8135 7.38717 17.5442C7.38717 17.3133 7.38717 16.7362 7.38717 15.9667C4.79308 16.5438 4.25103 14.7356 4.25103 14.7356C3.82513 13.6583 3.20565 13.389 3.20565 13.389C2.35386 12.8119 3.28308 12.8119 3.28308 12.8119C4.21231 12.8888 4.71564 13.7737 4.71564 13.7737C5.52871 15.1972 6.88383 14.774 7.42588 14.5432C7.50332 13.9276 7.73563 13.5429 8.00665 13.312C5.95461 13.0812 3.78641 12.2732 3.78641 8.7336C3.78641 7.73328 4.13487 6.88685 4.75436 6.27127C4.67692 6.04042 4.32846 5.11704 4.83179 3.80893C4.83179 3.80893 5.60615 3.57808 7.38717 4.77078C8.1228 4.57841 8.93588 4.46299 9.71023 4.46299C10.4846 4.46299 11.2977 4.57841 12.0333 4.77078C13.8143 3.57808 14.5887 3.80893 14.5887 3.80893C15.092 5.07857 14.7823 6.00195 14.6661 6.27127C15.2469 6.92532 15.634 7.73328 15.634 8.7336C15.634 12.2732 13.4659 13.0427 11.3751 13.2735C11.7236 13.5429 11.9946 14.12 11.9946 14.9664C11.9946 16.1976 11.9946 17.1979 11.9946 17.5057C11.9946 17.7365 12.1494 18.0443 12.6528 17.9674C16.331 16.7747 19.0025 13.312 19.0025 9.23377C19.0025 4.11672 14.8597 0 9.71023 0C4.56077 0 0.417969 4.11672 0.417969 9.23377Z"
                fill="currentColor"
            ></path>
        </g>
        <defs>
            <clipPath id="clip0_2_919"></clipPath>
        </defs>
    </symbol>
    <symbol fill="none" viewBox="0 0 21 20" id="instagram">
        <g clip-path="url(#clip0_2_909)">
            <path
                fill-rule="evenodd"
                clip-rule="evenodd"
                d="M14.2384 1.79548C14.8545 1.80297 15.4647 1.91538 16.0425 2.12783C16.4615 2.28841 16.8421 2.5344 17.1596 2.84997C17.4772 3.16554 17.7248 3.54369 17.8864 3.96008C18.1002 4.53427 18.2133 5.14063 18.2208 5.75281C18.2671 6.77098 18.2773 7.07621 18.2773 9.65359C18.2773 12.231 18.2675 12.5362 18.2208 13.5544C18.2133 14.1666 18.1002 14.7729 17.8864 15.3471C17.7248 15.7635 17.4772 16.1416 17.1596 16.4572C16.8421 16.7728 16.4615 17.0188 16.0425 17.1794C15.4647 17.3918 14.8545 17.5042 14.2384 17.5117C13.2143 17.5577 12.9071 17.5678 10.3129 17.5678C7.71875 17.5678 7.41159 17.5581 6.38742 17.5117C5.77137 17.5042 5.16116 17.3918 4.58334 17.1794C4.16431 17.0188 3.78377 16.7728 3.4662 16.4572C3.14863 16.1416 2.90108 15.7635 2.73948 15.3471C2.52569 14.7729 2.41257 14.1666 2.40503 13.5544C2.35877 12.5362 2.34859 12.231 2.34859 9.65359C2.34859 7.07621 2.35831 6.77098 2.40503 5.75281C2.41257 5.14063 2.52569 4.53427 2.73948 3.96008C2.90108 3.54369 3.14863 3.16554 3.4662 2.84997C3.78377 2.5344 4.16431 2.28841 4.58334 2.12783C5.16116 1.91538 5.77137 1.80297 6.38742 1.79548C7.41205 1.74952 7.71921 1.7394 10.3129 1.7394C12.9066 1.7394 13.2138 1.74906 14.2384 1.79548ZM6.30786 0.0579188C5.5016 0.0738547 4.70389 0.225553 3.94868 0.50656C3.30082 0.749114 2.71403 1.12922 2.22925 1.62035C1.73456 2.10226 1.35172 2.68568 1.10748 3.32987C0.824689 4.08033 0.67203 4.87302 0.655993 5.6742C0.609735 6.70295 0.598633 7.033 0.598633 9.65313C0.598633 12.2733 0.609735 12.6033 0.656919 13.633C0.672955 14.4342 0.825614 15.2269 1.1084 15.9773C1.35237 16.6214 1.73489 17.2048 2.22925 17.6868C2.7143 18.1781 3.30142 18.5582 3.9496 18.8006C4.70482 19.0816 5.50252 19.2333 6.30879 19.2493C7.34498 19.2952 7.67573 19.3072 10.3138 19.3072C12.952 19.3072 13.2827 19.2962 14.3189 19.2493C15.1252 19.2333 15.9229 19.0816 16.6781 18.8006C17.3232 18.5521 17.909 18.1726 18.3981 17.6863C18.8872 17.2 19.2687 16.6176 19.5184 15.9764C19.8012 15.2259 19.9538 14.4333 19.9699 13.6321C20.0161 12.6033 20.0272 12.2733 20.0272 9.65313C20.0272 7.033 20.0161 6.70295 19.9689 5.67329C19.9529 4.8721 19.8002 4.07941 19.5174 3.32895C19.2735 2.68485 18.891 2.10143 18.3966 1.61943C17.9115 1.12819 17.3244 0.748076 16.6762 0.50564C15.921 0.224633 15.1233 0.0729354 14.3171 0.0569995C13.2818 0.0110322 12.9497 0 10.3129 0C7.67619 0 7.34405 0.0110321 6.30786 0.0579188Z"
                fill="currentColor"
            ></path>
            <path
                fill-rule="evenodd"
                clip-rule="evenodd"
                d="M7.53931 5.53171C6.71896 6.07641 6.07957 6.8506 5.702 7.7564C5.32443 8.66219 5.22564 9.6589 5.41812 10.6205C5.6106 11.5821 6.08571 12.4653 6.78337 13.1586C7.48103 13.8519 8.3699 14.324 9.33758 14.5153C10.3053 14.7065 11.3083 14.6084 12.2198 14.2332C13.1313 13.858 13.9104 13.2226 14.4586 12.4074C15.0067 11.5922 15.2993 10.6338 15.2993 9.6534C15.2993 8.3387 14.7737 7.07783 13.8382 6.14819C12.9027 5.21856 11.6338 4.69629 10.3108 4.69629C9.32415 4.69629 8.35967 4.98702 7.53931 5.53171ZM8.5118 12.3288C7.97929 11.9753 7.56426 11.4727 7.31918 10.8848C7.07409 10.2968 7.00997 9.64983 7.13491 9.02566C7.25985 8.40148 7.56825 7.82814 8.02111 7.37814C8.47396 6.92813 9.05094 6.62168 9.67907 6.49752C10.3072 6.37336 10.9583 6.43708 11.55 6.68063C12.1416 6.92417 12.6474 7.33659 13.0032 7.86574C13.359 8.39489 13.5489 9.017 13.5489 9.6534C13.5489 10.5068 13.2077 11.3252 12.6005 11.9287C11.9932 12.5321 11.1696 12.8711 10.3108 12.8711C9.67035 12.8711 9.0443 12.6824 8.5118 12.3288Z"
                fill="currentColor"
            ></path>
            <path
                fill-rule="evenodd"
                clip-rule="evenodd"
                d="M15.4977 5.65855C14.8539 5.65855 14.332 5.13993 14.332 4.50017C14.332 3.86042 14.8539 3.3418 15.4977 3.3418C16.1416 3.3418 16.6635 3.86042 16.6635 4.50017C16.6635 5.13993 16.1416 5.65855 15.4977 5.65855Z"
                fill="currentColor"
            ></path>
        </g>
    </symbol>
    <symbol fill="none" viewBox="0 0 17 14" id="twitter">
        <g clip-path="url(#clip0_2_902)">
            <path
                d="M15.1208 3.02351C15.7884 2.62544 16.3225 1.99517 16.5562 1.23221C15.9219 1.5971 15.2209 1.86248 14.4531 2.02834C13.8522 1.39807 12.9843 1 12.0496 1C10.2469 1 8.77811 2.45958 8.77811 4.25088C8.77811 4.51626 8.81149 4.74847 8.87825 4.98067C6.17428 4.84799 3.73736 3.55427 2.10162 1.56393C1.83456 2.06151 1.66765 2.59227 1.66765 3.18937C1.66765 4.31723 2.23515 5.3124 3.13648 5.9095C2.60236 5.87633 2.10162 5.74364 1.63427 5.51143V5.5446C1.63427 7.13687 2.76927 8.46376 4.27148 8.76232C4.00442 8.82866 3.70398 8.86183 3.40354 8.86183C3.20324 8.86183 2.96956 8.82866 2.76927 8.79549C3.20324 10.0892 4.40501 11.0512 5.84045 11.0512C4.70545 11.9137 3.30339 12.4444 1.7678 12.4444C1.50074 12.4444 1.23368 12.4444 1 12.4113C2.46883 13.3401 4.17133 13.8708 6.04075 13.8708C12.083 13.8708 15.3878 8.895 15.3878 4.58261C15.3878 4.44992 15.3878 4.28406 15.3878 4.15137C16.0221 3.72013 16.5896 3.1562 17.0236 2.49275C16.4227 2.75813 15.7884 2.92399 15.1208 3.02351Z"
                fill="currentColor"
            ></path>
        </g>
        <defs>
            <clipPath id="clip0_2_902"></clipPath>
        </defs>
    </symbol>
    <symbol fill="none" viewBox="0 0 37 36" id="reactions">
        <mask
            id="mask0_2_1152"
            maskUnits="userSpaceOnUse"
            x="0"
            y="0"
            width="37"
            height="36"
        >
            <rect
                x="0.940002"
                width="35.1697"
                height="35.1697"
                fill="currentColor"
            ></rect>
        </mask>
        <g mask="url(#mask0_2_1152)">
            <path
                fill-rule="evenodd"
                clip-rule="evenodd"
                d="M9.46867 7.32701L10.4358 2.66702C10.5531 2.12482 10.3772 1.56796 9.99621 1.1723C9.35143 0.527526 8.311 0.527526 7.68087 1.1723L1.81925 7.03393C1.24774 7.57613 0.940002 8.32349 0.940002 9.10015V17.5849C0.940002 19.1968 2.25887 20.5157 3.87081 20.5157H12.546C13.7183 20.5157 14.7734 19.8123 15.2424 18.7425L18.3783 11.4155C19.199 9.48116 17.7775 7.32701 15.682 7.32701H9.46867ZM24.5037 14.654C23.3314 14.654 22.2763 15.3574 21.8074 16.4272L18.6714 23.7542C17.8508 25.6885 19.2576 27.8427 21.3678 27.8427H27.5811L26.6139 32.5027C26.4967 33.0449 26.6725 33.6017 27.0535 33.9974C27.6983 34.6422 28.7388 34.6422 29.3689 33.9974L35.2305 28.1358C35.7874 27.5789 36.0951 26.8462 36.0951 26.0696V17.5849C36.1097 15.9729 34.7909 14.654 33.1789 14.654H24.5037Z"
                fill="currentColor"
            ></path>
        </g>
    </symbol>
    <symbol fill="none" viewBox="0 0 31 31" id="refresh">
        <path
            d="M15.5857 19.7731C18.0182 19.7731 19.9819 17.8095 19.9819 15.3769C19.9819 12.9444 18.0182 10.9807 15.5857 10.9807C13.1531 10.9807 11.1895 12.9444 11.1895 15.3769C11.1895 17.8095 13.1531 19.7731 15.5857 19.7731Z"
            fill="currentColor"
        ></path>
        <path
            d="M8.25769 9.51534H5.45877C7.48103 6.01302 11.2618 3.65371 15.5847 3.65371C20.699 3.65371 25.0366 6.93622 26.6339 11.5083C26.839 12.0798 27.4106 12.4461 28.0114 12.4461C29.0078 12.4461 29.7405 11.4643 29.4182 10.5265C27.4106 4.81138 21.9739 0.7229 15.5847 0.7229C10.7928 0.7229 6.52852 3.03824 3.86148 6.59918V5.11912C3.86148 4.31315 3.20204 3.65371 2.39607 3.65371C1.5901 3.65371 0.930664 4.31315 0.930664 5.11912V10.9807C0.930664 11.7867 1.5901 12.4461 2.39607 12.4461H8.25769C9.06367 12.4461 9.7231 11.7867 9.7231 10.9807C9.7231 10.1748 9.06367 9.51534 8.25769 9.51534Z"
            fill="currentColor"
        ></path>
        <path
            d="M22.9113 21.2387H25.7102C23.6879 24.741 19.9072 27.1003 15.5842 27.1003C10.47 27.1003 6.13237 23.8178 4.53508 19.2457C4.32992 18.6742 3.75841 18.3079 3.1576 18.3079C2.16112 18.3079 1.42842 19.2897 1.75081 20.2275C3.75841 25.9426 9.19507 30.0311 15.5842 30.0311C20.3761 30.0311 24.6404 27.7158 27.3075 24.1548V25.6349C27.3075 26.4409 27.9669 27.1003 28.7729 27.1003C29.5789 27.1003 30.2383 26.4409 30.2383 25.6349V19.7733C30.2383 18.9673 29.5789 18.3079 28.7729 18.3079H22.9113C22.1053 18.3079 21.4459 18.9673 21.4459 19.7733C21.4459 20.5792 22.1053 21.2387 22.9113 21.2387Z"
            fill="currentColor"
        ></path>
    </symbol>
    <symbol fill="none" viewBox="0 0 14 13" id="star">
        <path
            d="M12.3738 4.23335L8.62048 3.8926L7.13714 0.419814C7.02762 0.164672 6.77843 0 6.50107 0C6.22371 0 5.97442 0.164672 5.8656 0.419814L4.38226 3.8926L0.62834 4.23335C0.353159 4.25875 0.120139 4.44515 0.0340334 4.70793C-0.0515761 4.9712 0.0274862 5.25997 0.235608 5.4425L3.07282 7.93034L2.23627 11.6148C2.17506 11.8857 2.28022 12.1659 2.505 12.3284C2.62583 12.4162 2.76778 12.46 2.91023 12.46C3.03265 12.46 3.15516 12.4275 3.26458 12.362L6.50107 10.4268L9.73697 12.362C9.97436 12.5038 10.2728 12.4909 10.4971 12.3284C10.7219 12.1659 10.8271 11.8857 10.7659 11.6148L9.92932 7.93034L12.7665 5.4425C12.9746 5.25997 13.0537 4.9718 12.9681 4.70793C12.8825 4.44465 12.649 4.25825 12.3738 4.23335Z"
            fill="currentColor"
        ></path>
    </symbol>
    <symbol fill="none" viewBox="0 0 14 13" id="star-empty">
        <path
            opacity="0.3"
            d="M12.3738 4.23335L8.62048 3.8926L7.13714 0.419814C7.02762 0.164672 6.77843 0 6.50107 0C6.22371 0 5.97442 0.164672 5.8656 0.419814L4.38226 3.8926L0.62834 4.23335C0.353159 4.25875 0.120139 4.44515 0.0340334 4.70793C-0.0515761 4.9712 0.0274862 5.25997 0.235608 5.4425L3.07282 7.93034L2.23627 11.6148C2.17506 11.8857 2.28022 12.1659 2.505 12.3284C2.62583 12.4162 2.76778 12.46 2.91023 12.46C3.03265 12.46 3.15516 12.4275 3.26458 12.362L6.50107 10.4268L9.73697 12.362C9.97436 12.5038 10.2728 12.4909 10.4971 12.3284C10.7219 12.1659 10.8271 11.8857 10.7659 11.6148L9.92932 7.93034L12.7665 5.4425C12.9746 5.25997 13.0537 4.9718 12.9681 4.70793C12.8825 4.44465 12.649 4.25825 12.3738 4.23335Z"
            fill="currentColor"
        ></path>
    </symbol>
    <symbol fill="none" viewBox="0 0 28 19" id="video">
        <path
            d="M21.252 2.04988C21.252 1.24391 20.5926 0.584473 19.7866 0.584473H2.20173C1.39576 0.584473 0.736328 1.24391 0.736328 2.04988V16.7039C0.736328 17.5099 1.39576 18.1693 2.20173 18.1693H19.7866C20.5926 18.1693 21.252 17.5099 21.252 16.7039V11.575L24.6078 14.9308C25.531 15.854 27.1136 15.1946 27.1136 13.8904V4.8488C27.1136 3.54459 25.531 2.88516 24.6078 3.80837L21.252 7.1788V2.04988Z"
            fill="currentColor"
        />
    </symbol>
    <symbol fill="none" viewBox="0 0 18 18" id="arrow-right">
        <mask
            id="mask0_2_1244"
            maskUnits="userSpaceOnUse"
            x="0"
            y="0"
            width="18"
            height="18"
        >
            <rect width="18" height="18" fill="currentColor"></rect>
        </mask>
        <g mask="url(#mask0_2_1244)">
            <path
                d="M11.2071 3.04289L10.5 3.75L10.5 3.75L11.2071 3.04289ZM9.79289 3.04289L9.08579 2.33579V2.33579L9.79289 3.04289ZM16.4571 8.29289L15.75 9V9L16.4571 8.29289ZM16.4571 9.70711L15.75 9L15.75 9L16.4571 9.70711ZM15.0429 9.70711L15.75 9L15.75 9L15.0429 9.70711ZM9.79289 4.45711L10.5 3.75V3.75L9.79289 4.45711ZM16.4571 9.70711L15.75 9L16.4571 9.70711ZM16.4571 8.29289L15.75 9L15.75 9L16.4571 8.29289ZM11.2071 14.9571L10.5 14.25L10.5 14.25L11.2071 14.9571ZM9.79289 14.9571L10.5 14.25L9.79289 14.9571ZM9.79289 13.5429L10.5 14.25V14.25L9.79289 13.5429ZM15.0429 8.29289L15.75 9V9L15.0429 8.29289ZM2.25 8L2.25 7H2.25V8ZM1.25 9H0.25H1.25ZM15.75 8V9V8ZM15.75 10V11V10ZM2.25 10L2.25 9H2.25V10ZM11.9142 2.33579C11.1332 1.55474 9.86684 1.55474 9.08579 2.33579L10.5 3.75L10.5 3.75L11.9142 2.33579ZM17.1642 7.58579L11.9142 2.33579L10.5 3.75L15.75 9L17.1642 7.58579ZM17.1642 10.4142C17.9453 9.63317 17.9453 8.36684 17.1642 7.58579L15.75 9L15.75 9L17.1642 10.4142ZM14.3358 10.4142C15.1168 11.1953 16.3832 11.1953 17.1642 10.4142L15.75 9H15.75L14.3358 10.4142ZM9.08579 5.16421L14.3358 10.4142L15.75 9L10.5 3.75L9.08579 5.16421ZM9.08579 2.33579C8.30474 3.11683 8.30474 4.38317 9.08579 5.16421L10.5 3.75V3.75L9.08579 2.33579ZM17.1642 10.4142C17.9453 9.63317 17.9453 8.36684 17.1642 7.58579L15.75 9V9L17.1642 10.4142ZM11.9142 15.6642L17.1642 10.4142L15.75 9L10.5 14.25L11.9142 15.6642ZM9.08578 15.6642C9.86683 16.4453 11.1332 16.4453 11.9142 15.6642L10.5 14.25L10.5 14.25L9.08578 15.6642ZM9.08579 12.8358C8.30474 13.6168 8.30474 14.8832 9.08579 15.6642L10.5 14.25V14.25L9.08579 12.8358ZM14.3358 7.58579L9.08579 12.8358L10.5 14.25L15.75 9L14.3358 7.58579ZM17.1642 7.58579C16.3832 6.80474 15.1168 6.80474 14.3358 7.58579L15.75 9L15.75 9L17.1642 7.58579ZM2.25 7C1.14543 7 0.25 7.89543 0.25 9H2.25V7ZM15.75 7L2.25 7L2.25 9L15.75 9V7ZM17.75 9C17.75 7.89543 16.8546 7 15.75 7V9H17.75ZM15.75 11C16.8546 11 17.75 10.1046 17.75 9H15.75V11ZM2.25 11L15.75 11V9L2.25 9L2.25 11ZM0.25 9C0.25 10.1046 1.14543 11 2.25 11V9H0.25Z"
                fill="currentColor"
            ></path>
        </g>
    </symbol>
    <symbol fill="none" viewBox="0 0 20 18" id="chat">
        <path
            d="M2.74761 17.2584C2.49002 17.1726 2.23244 17.0009 2.06071 16.8291L1.97485 16.7433C1.88898 16.6574 1.80312 16.4857 1.80312 16.3998C1.80312 16.2281 1.88898 16.1422 2.06071 16.0564C2.74761 15.7129 3.34865 15.1119 3.6921 14.425C3.77797 14.3391 3.86383 14.2532 3.86383 14.1674C1.45967 12.7077 0 10.3894 0 7.89939C0 3.60624 4.46487 0 9.87423 0C15.2836 0 19.7485 3.60624 19.7485 7.89939C19.7485 12.1925 15.2836 15.7988 9.87423 15.7988C9.35905 15.7988 8.75802 15.7988 8.24284 15.7129C6.95489 16.8291 5.40936 17.4302 3.94969 17.4302C3.52038 17.4302 3.17693 17.3443 2.74761 17.2584Z"
            fill="currentColor"
        ></path>
    </symbol>
    <symbol fill="none" viewBox="0 0 16 18" id="clock">
        <path
            fill-rule="evenodd"
            clip-rule="evenodd"
            d="M9.46707 1.89621C10.0359 1.89621 10.4152 1.51697 10.4152 0.948103C10.4152 0.379241 10.0359 0 9.46707 0H5.67466C5.1058 0 4.72656 0.379241 4.72656 0.948103C4.72656 1.51697 5.1058 1.89621 5.67466 1.89621H9.46707ZM14.3972 4.93014C14.7765 4.55089 14.7765 3.98203 14.3972 3.60279C14.018 3.22355 13.4491 3.22355 13.0699 3.60279L12.2166 4.45608C9.46707 2.27545 5.67466 2.27545 2.92516 4.45608L2.07187 3.60279C1.69263 3.22355 1.12376 3.22355 0.744523 3.60279C0.365281 3.98203 0.365281 4.55089 0.744523 4.93014L1.59782 5.78343C-0.962064 9.10179 -0.393201 13.8423 2.92516 16.4022C6.24352 18.9621 10.984 18.3932 13.5439 15.0748C15.7246 12.3253 15.7246 8.53293 13.5439 5.78343L14.3972 4.93014ZM7.57087 12.3253C6.52795 12.3253 5.67466 11.472 5.67466 10.4291C5.67466 9.76546 6.0539 9.10179 6.62276 8.81736V6.63672C6.62276 6.06786 7.002 5.68862 7.57087 5.68862C8.13973 5.68862 8.51897 6.06786 8.51897 6.63672V8.81736C9.46707 9.29141 9.7515 10.4291 9.18264 11.3772C8.8034 11.9461 8.23454 12.3253 7.57087 12.3253Z"
            fill="currentColor"
        ></path>
    </symbol>
    <symbol fill="none" viewBox="0 0 11 11" id="dot">
        <circle cx="5.5" cy="5.5" r="5.5" fill="currentColor"></circle>
    </symbol>
    <symbol fill="none" viewBox="0 0 20 20" id="email">
        <path
            d="M1.574 5.286l7.5 4.029c.252.135.578.199.906.199.328 0 .654-.064.906-.199l7.5-4.029c.489-.263.951-1.286.054-1.286H1.521c-.897 0-.435 1.023.053 1.286zm17.039 2.203l-7.727 4.027c-.34.178-.578.199-.906.199s-.566-.021-.906-.199-7.133-3.739-7.688-4.028C.996 7.284 1 7.523 1 7.707V15c0 .42.566 1 1 1h16c.434 0 1-.58 1-1V7.708c0-.184.004-.423-.387-.219z"
            fill="currentColor"
        />
    </symbol>
    <symbol fill="none" viewBox="0 0 19 18" id="inbox">
        <path
            fill-rule="evenodd"
            clip-rule="evenodd"
            d="M3.87363 17.9603C3.00686 17.9603 2.17559 17.6154 1.56269 17.0016C0.949791 16.3877 0.605469 15.5551 0.605469 14.6869V11.4136L4.3584 7.65466C4.49102 7.87821 4.64974 8.08516 4.8312 8.27114L5.82907 9.27061L2.78424 12.5047H6.0524V13.5958C6.0524 13.8852 6.16717 14.1627 6.37147 14.3674C6.57577 14.572 6.85286 14.6869 7.14178 14.6869H11.4993C12.1018 14.6869 12.5887 14.1992 12.5887 13.5958V12.5047H15.8569L12.812 9.27061L13.8099 8.27114C13.9914 8.08535 14.1505 7.87879 14.2838 7.65575L18.0356 11.4136V14.6869C18.0356 15.5551 17.6913 16.3877 17.0784 17.0016C16.4655 17.6154 15.6342 17.9603 14.7675 17.9603H3.87363ZM9.32055 9.23024C9.04167 9.23024 8.76279 9.12331 8.55036 8.91054L6.37159 6.72829C6.21956 6.57544 6.11601 6.38101 6.07396 6.16941C6.0319 5.95781 6.0532 5.73848 6.13519 5.53897C6.21783 5.33981 6.35757 5.16966 6.53673 5.05003C6.7159 4.93039 6.92645 4.86664 7.14178 4.86683H8.23117V1.59346C8.2385 1.30896 8.35649 1.03857 8.55999 0.839943C8.76349 0.641313 9.0364 0.530151 9.32055 0.530151C9.6047 0.530151 9.87761 0.641313 10.0811 0.839943C10.2846 1.03857 10.4026 1.30896 10.4099 1.59346V4.86683H11.4993C11.9394 4.86683 12.3382 5.13307 12.5059 5.54006C12.5882 5.73935 12.6096 5.95858 12.5675 6.17006C12.5254 6.38154 12.4217 6.5758 12.2695 6.72829L10.0907 8.91054C9.87832 9.12331 9.59944 9.23024 9.32055 9.23024Z"
            fill="currentColor"
        ></path>
    </symbol>
    <symbol fill="none" viewBox="0 0 21 32" id="micro">
        <path
            fill-rule="evenodd"
            clip-rule="evenodd"
            d="M14.5805 15.3294V5.33157C14.5805 2.5655 12.6169 0.332642 10.1843 0.332642C7.75172 0.332642 5.78808 2.5655 5.78808 5.33157V15.3294C5.78808 18.0955 7.75172 20.3284 10.1843 20.3284C12.6169 20.3284 14.5805 18.0955 14.5805 15.3294ZM17.4087 16.7458C16.8079 20.6616 13.8038 23.661 10.1843 23.661C6.56474 23.661 3.56066 20.6616 2.95984 16.7458C2.84261 15.9293 2.24179 15.3294 1.52375 15.3294C0.629848 15.3294 -0.0735467 16.2292 0.0583398 17.229C0.776389 22.228 4.29336 26.1438 8.71889 26.8603V30.3262C8.71889 31.2427 9.37832 31.9925 10.1843 31.9925C10.9903 31.9925 11.6497 31.2427 11.6497 30.3262V26.8603C16.0752 26.1438 19.5922 22.228 20.3102 17.229C20.4568 16.2292 19.7387 15.3294 18.8448 15.3294C18.1268 15.3294 17.526 15.9293 17.4087 16.7458Z"
            fill="currentColor"
        ></path>
    </symbol>
    <symbol fill="none" viewBox="0 0 11 11" id="phone">
        <path
            d="M1.03922 0.242928H2.465C2.78874 0.242928 3.06503 0.476982 3.11826 0.796319L3.60788 3.73406C3.65568 4.02084 3.51084 4.30526 3.2508 4.43528L2.22551 4.94792C2.9648 6.78502 4.43114 8.25136 6.26824 8.99065L6.78088 7.96537C6.91091 7.70532 7.19533 7.56049 7.48211 7.60829L10.4198 8.09791C10.7392 8.15113 10.9732 8.42742 10.9732 8.75117V10.1769C10.9732 10.5427 10.6767 10.8392 10.311 10.8392H8.98643C4.23155 10.8392 0.376953 6.98462 0.376953 2.22973V0.905195C0.376953 0.539435 0.673461 0.242928 1.03922 0.242928Z"
            fill="currentColor"
        ></path>
    </symbol>
    <symbol fill="none" viewBox="0 0 18 15" id="private">
        <path
            fill-rule="evenodd"
            clip-rule="evenodd"
            d="M15.9862 5.685L18 3C15.4913 1.1175 12.375 0 9 0C5.625 0 2.50875 1.1175 0 3L9 15L11.625 11.5012V9.375C11.625 7.305 13.305 5.625 15.375 5.625C15.585 5.625 15.7837 5.655 15.9862 5.685ZM17.25 9.375C17.25 8.34 16.41 7.5 15.375 7.5C14.34 7.5 13.5 8.34 13.5 9.375V10.5C13.0875 10.5 12.75 10.8375 12.75 11.25V14.25C12.75 14.6625 13.0875 15 13.5 15H17.25C17.6625 15 18 14.6625 18 14.25V11.25C18 10.8375 17.6625 10.5 17.25 10.5V9.375ZM14.25 10.5V9.375C14.25 8.7525 14.7525 8.25 15.375 8.25C15.9975 8.25 16.5 8.7525 16.5 9.375V10.5H14.25Z"
            fill="currentColor"
        ></path>
    </symbol>
    <symbol fill="none" viewBox="0 0 37 35" id="reactions">
        <path
            fill-rule="evenodd"
            clip-rule="evenodd"
            d="M9.46867 7.32701L10.4358 2.66702C10.5531 2.12482 10.3772 1.56796 9.99621 1.1723C9.35143 0.527526 8.311 0.527526 7.68087 1.1723L1.81925 7.03393C1.24774 7.57613 0.940002 8.32349 0.940002 9.10015V17.5849C0.940002 19.1968 2.25887 20.5157 3.87081 20.5157H12.546C13.7183 20.5157 14.7734 19.8123 15.2424 18.7425L18.3783 11.4155C19.199 9.48116 17.7775 7.32701 15.682 7.32701H9.46867ZM24.5037 14.654C23.3314 14.654 22.2763 15.3574 21.8074 16.4272L18.6714 23.7542C17.8508 25.6885 19.2576 27.8427 21.3678 27.8427H27.5811L26.6139 32.5027C26.4967 33.0449 26.6725 33.6017 27.0535 33.9974C27.6983 34.6422 28.7388 34.6422 29.3689 33.9974L35.2305 28.1358C35.7874 27.5789 36.0951 26.8462 36.0951 26.0696V17.5849C36.1097 15.9729 34.7909 14.654 33.1789 14.654H24.5037Z"
            fill="currentColor"
        ></path>
    </symbol>
    <symbol fill="none" viewBox="0 0 31 31" id="refresh">
        <path
            d="M15.5857 19.7731C18.0182 19.7731 19.9819 17.8095 19.9819 15.3769C19.9819 12.9444 18.0182 10.9807 15.5857 10.9807C13.1531 10.9807 11.1895 12.9444 11.1895 15.3769C11.1895 17.8095 13.1531 19.7731 15.5857 19.7731Z"
            fill="currentColor"
        ></path>
        <path
            d="M8.25769 9.51534H5.45877C7.48103 6.01302 11.2618 3.65371 15.5847 3.65371C20.699 3.65371 25.0366 6.93622 26.6339 11.5083C26.839 12.0798 27.4106 12.4461 28.0114 12.4461C29.0078 12.4461 29.7405 11.4643 29.4182 10.5265C27.4106 4.81138 21.9739 0.7229 15.5847 0.7229C10.7928 0.7229 6.52852 3.03824 3.86148 6.59918V5.11912C3.86148 4.31315 3.20204 3.65371 2.39607 3.65371C1.5901 3.65371 0.930664 4.31315 0.930664 5.11912V10.9807C0.930664 11.7867 1.5901 12.4461 2.39607 12.4461H8.25769C9.06367 12.4461 9.7231 11.7867 9.7231 10.9807C9.7231 10.1748 9.06367 9.51534 8.25769 9.51534Z"
            fill="currentColor"
        ></path>
        <path
            d="M22.9113 21.2387H25.7102C23.6879 24.741 19.9072 27.1003 15.5842 27.1003C10.47 27.1003 6.13237 23.8178 4.53508 19.2457C4.32992 18.6742 3.75841 18.3079 3.1576 18.3079C2.16112 18.3079 1.42842 19.2897 1.75081 20.2275C3.75841 25.9426 9.19507 30.0311 15.5842 30.0311C20.3761 30.0311 24.6404 27.7158 27.3075 24.1548V25.6349C27.3075 26.4409 27.9669 27.1003 28.7729 27.1003C29.5789 27.1003 30.2383 26.4409 30.2383 25.6349V19.7733C30.2383 18.9673 29.5789 18.3079 28.7729 18.3079H22.9113C22.1053 18.3079 21.4459 18.9673 21.4459 19.7733C21.4459 20.5792 22.1053 21.2387 22.9113 21.2387Z"
            fill="currentColor"
        ></path>
    </symbol>
    <symbol fill="none" viewBox="0 0 18 18" id="chat-fb">
        <path
            fill-rule="evenodd"
            clip-rule="evenodd"
            d="M5.97861 0.660615C4.92001 1.06749 3.95464 1.68429 3.14059 2.47392C2.32654 3.26354 1.68063 4.20968 1.24172 5.25541C0.802801 6.30113 0.579952 7.42484 0.586575 8.55892C0.571971 9.73633 0.808449 10.9033 1.28026 11.9822C1.75206 13.061 2.44836 14.0269 3.32276 14.8156C3.39218 14.8774 3.44871 14.9523 3.48908 15.0361C3.52946 15.1198 3.55289 15.2107 3.55804 15.3035V16.8546C3.56282 16.969 3.59532 17.0804 3.65276 17.1794C3.7102 17.2784 3.79084 17.3619 3.88774 17.4228C3.98464 17.4837 4.09489 17.5201 4.209 17.5289C4.3231 17.5377 4.43763 17.5186 4.54272 17.4733L6.28551 16.7152C6.43433 16.659 6.59854 16.659 6.74735 16.7152C7.57121 16.9376 8.42107 17.0489 9.27441 17.0463C11.5208 17.0498 13.6765 16.1608 15.2674 14.5748C16.8583 12.9888 17.754 10.8358 17.7575 8.58942C17.7609 6.34304 16.8719 4.18729 15.2859 2.59641C13.6999 1.00553 11.5469 0.109835 9.30055 0.106368C8.16719 0.0652157 7.03722 0.253745 5.97861 0.660615ZM11.9757 10.6677C11.8794 10.8206 11.7525 10.9518 11.6029 11.0532C11.4533 11.1545 11.2844 11.2238 11.1067 11.2565C10.929 11.2893 10.7464 11.2848 10.5706 11.2435C10.3947 11.2021 10.2293 11.1248 10.0848 11.0163L8.04574 9.49132C7.95523 9.42344 7.84516 9.38675 7.73203 9.38675C7.61891 9.38675 7.50883 9.42344 7.41833 9.49132L4.66471 11.5827C4.58803 11.6418 4.49286 11.6719 4.39611 11.6675C4.29936 11.6631 4.2073 11.6246 4.13625 11.5588C4.06521 11.493 4.01979 11.4041 4.00806 11.308C3.99633 11.2118 4.01904 11.1147 4.07216 11.0337L6.62536 6.97298C6.72165 6.8201 6.84859 6.68884 6.99817 6.58749C7.14775 6.48614 7.31672 6.4169 7.49441 6.38415C7.6721 6.3514 7.85465 6.35584 8.03053 6.39719C8.20641 6.43855 8.37182 6.51592 8.51629 6.62442L10.5554 8.14936C10.6459 8.21724 10.7559 8.25393 10.8691 8.25393C10.9822 8.25393 11.0923 8.21724 11.1828 8.14936L13.9364 6.05801C14.0131 5.99887 14.1082 5.96881 14.205 5.97319C14.3017 5.97756 14.3938 6.01607 14.4648 6.08189C14.5359 6.14771 14.5813 6.23657 14.593 6.33271C14.6048 6.42884 14.5821 6.52602 14.5289 6.60699L11.9757 10.6677Z"
            fill="currentColor"
        ></path>
    </symbol>
    <symbol fill="none" viewBox="0 0 9 9" id="close">
        <path
            fill-rule="evenodd"
            clip-rule="evenodd"
            d="M1.57978 0.761364L4.42283 3.60441L7.26587 0.761364C7.5245 0.502733 7.94383 0.502733 8.20246 0.761364C8.46109 1.02 8.46109 1.43932 8.20246 1.69795L5.35941 4.541L8.20246 7.38404C8.46109 7.64267 8.46109 8.062 8.20246 8.32063C7.94383 8.57926 7.5245 8.57926 7.26587 8.32063L4.42283 5.47758L1.57978 8.32063C1.32115 8.57926 0.901824 8.57926 0.643192 8.32063C0.384561 8.062 0.384561 7.64267 0.643192 7.38404L3.48624 4.541L0.643192 1.69795C0.384561 1.43932 0.384561 1.02 0.643192 0.761364C0.901824 0.502733 1.32115 0.502733 1.57978 0.761364Z"
            fill="currentColor"
        ></path>
    </symbol>
</svg>
