<svg width="21" height="21" viewBox="0 0 21 21" fill="none" xmlns="http://www.w3.org/2000/svg">
<g clip-path="url(#clip0_2_1543)">
<circle opacity="0.3" cx="10.9139" cy="9.91395" r="9.91395" fill="#07C5B9"/>
<circle cx="10.7284" cy="10.2734" r="7.43546" fill="#07C5B9"/>
<mask id="mask0_2_1543" style="mask-type:alpha" maskUnits="userSpaceOnUse" x="6" y="6" width="9" height="9">
<rect x="6.76172" y="6.80273" width="7.43546" height="7.43546" fill="white"/>
</mask>
<g mask="url(#mask0_2_1543)">
<path d="M7.87714 7.5459H8.67752C8.85926 7.5459 9.01436 7.67729 9.04424 7.85655L9.3191 9.50569C9.34593 9.66668 9.26462 9.82634 9.11864 9.89933L8.54309 10.1871C8.9581 11.2184 9.78125 12.0415 10.8125 12.4566L11.1003 11.881C11.1733 11.735 11.333 11.6537 11.4939 11.6805L13.1431 11.9554C13.3224 11.9853 13.4537 12.1404 13.4537 12.3221V13.1225C13.4537 13.3278 13.2873 13.4943 13.082 13.4943H12.3384C9.6692 13.4943 7.50537 11.3304 7.50537 8.66122V7.91767C7.50537 7.71235 7.67182 7.5459 7.87714 7.5459Z" fill="white"/>
</g>
</g>
<defs>
<clipPath id="clip0_2_1543">
<rect width="19.8279" height="19.8279" fill="white" transform="translate(0.814453 0.359375)"/>
</clipPath>
</defs>
</svg>
