<svg width="21" height="21" viewBox="0 0 21 21" fill="none" xmlns="http://www.w3.org/2000/svg">
<g clip-path="url(#clip0_2_1549)">
<circle opacity="0.3" cx="10.7792" cy="10.2733" r="9.91395" fill="#ED4546"/>
<circle cx="10.7792" cy="10.2734" r="7.43546" fill="#ED4546"/>
<mask id="mask0_2_1549" style="mask-type:alpha" maskUnits="userSpaceOnUse" x="6" y="6" width="9" height="9">
<rect x="6.8125" y="6.80273" width="7.43546" height="7.43546" fill="white"/>
</mask>
<g mask="url(#mask0_2_1549)">
<path fill-rule="evenodd" clip-rule="evenodd" d="M8.93446 8.39893L10.5304 9.99491L12.1264 8.39893C12.2716 8.25374 12.507 8.25374 12.6522 8.39893C12.7974 8.54412 12.7974 8.77951 12.6522 8.9247L11.0562 10.5207L12.6522 12.1167C12.7974 12.2618 12.7974 12.4972 12.6522 12.6424C12.507 12.7876 12.2716 12.7876 12.1264 12.6424L10.5304 11.0464L8.93446 12.6424C8.78927 12.7876 8.55388 12.7876 8.40869 12.6424C8.26351 12.4972 8.26351 12.2618 8.40869 12.1167L10.0047 10.5207L8.40869 8.9247C8.26351 8.77951 8.26351 8.54412 8.40869 8.39893C8.55388 8.25374 8.78927 8.25374 8.93446 8.39893Z" fill="white"/>
</g>
</g>
<defs>
<clipPath id="clip0_2_1549">
<rect width="19.8279" height="19.8279" fill="white" transform="translate(0.865234 0.359375)"/>
</clipPath>
</defs>
</svg>
