<svg width="36" height="40" viewBox="0 0 36 40" fill="none" xmlns="http://www.w3.org/2000/svg">
<mask id="mask0_2_1146" style="mask-type:alpha" maskUnits="userSpaceOnUse" x="0" y="0" width="36" height="40">
<rect x="0.600006" width="35.1697" height="39.9915" fill="white"/>
</mask>
<g mask="url(#mask0_2_1146)">
<path fill-rule="evenodd" clip-rule="evenodd" d="M22.5805 18.3294V8.33157C22.5805 5.5655 20.6169 3.33264 18.1843 3.33264C15.7517 3.33264 13.7881 5.5655 13.7881 8.33157V18.3294C13.7881 21.0955 15.7517 23.3284 18.1843 23.3284C20.6169 23.3284 22.5805 21.0955 22.5805 18.3294ZM25.4087 19.7458C24.8079 23.6616 21.8038 26.661 18.1843 26.661C14.5647 26.661 11.5607 23.6616 10.9598 19.7458C10.8426 18.9293 10.2418 18.3294 9.52375 18.3294C8.62985 18.3294 7.92645 19.2292 8.05834 20.229C8.77639 25.228 12.2934 29.1438 16.7189 29.8603V33.3262C16.7189 34.2427 17.3783 34.9925 18.1843 34.9925C18.9903 34.9925 19.6497 34.2427 19.6497 33.3262V29.8603C24.0752 29.1438 27.5922 25.228 28.3102 20.229C28.4568 19.2292 27.7387 18.3294 26.8448 18.3294C26.1268 18.3294 25.526 18.9293 25.4087 19.7458Z" fill="#FAFAFA"/>
</g>
</svg>
