<svg width="37" height="36" viewBox="0 0 37 36" fill="none" xmlns="http://www.w3.org/2000/svg">
<mask id="mask0_2_1152" style="mask-type:alpha" maskUnits="userSpaceOnUse" x="0" y="0" width="37" height="36">
<rect x="0.940002" width="35.1697" height="35.1697" fill="white"/>
</mask>
<g mask="url(#mask0_2_1152)">
<path fill-rule="evenodd" clip-rule="evenodd" d="M9.46867 7.32701L10.4358 2.66702C10.5531 2.12482 10.3772 1.56796 9.99621 1.1723C9.35143 0.527526 8.311 0.527526 7.68087 1.1723L1.81925 7.03393C1.24774 7.57613 0.940002 8.32349 0.940002 9.10015V17.5849C0.940002 19.1968 2.25887 20.5157 3.87081 20.5157H12.546C13.7183 20.5157 14.7734 19.8123 15.2424 18.7425L18.3783 11.4155C19.199 9.48116 17.7775 7.32701 15.682 7.32701H9.46867ZM24.5037 14.654C23.3314 14.654 22.2763 15.3574 21.8074 16.4272L18.6714 23.7542C17.8508 25.6885 19.2576 27.8427 21.3678 27.8427H27.5811L26.6139 32.5027C26.4967 33.0449 26.6725 33.6017 27.0535 33.9974C27.6983 34.6422 28.7388 34.6422 29.3689 33.9974L35.2305 28.1358C35.7874 27.5789 36.0951 26.8462 36.0951 26.0696V17.5849C36.1097 15.9729 34.7909 14.654 33.1789 14.654H24.5037Z" fill="#FAFAFA"/>
</g>
</svg>
