<svg width="17" height="14" viewBox="0 0 17 14" fill="none" xmlns="http://www.w3.org/2000/svg">
<g clip-path="url(#clip0_2_901)">
<path d="M15.1208 3.02351C15.7884 2.62544 16.3225 1.99517 16.5562 1.23221C15.9219 1.5971 15.2209 1.86248 14.4531 2.02834C13.8522 1.39807 12.9843 1 12.0496 1C10.2469 1 8.77811 2.45958 8.77811 4.25088C8.77811 4.51626 8.81149 4.74847 8.87825 4.98067C6.17428 4.84799 3.73736 3.55427 2.10162 1.56393C1.83456 2.06151 1.66765 2.59227 1.66765 3.18937C1.66765 4.31723 2.23515 5.3124 3.13648 5.9095C2.60236 5.87633 2.10162 5.74364 1.63427 5.51143V5.5446C1.63427 7.13687 2.76927 8.46376 4.27148 8.76232C4.00442 8.82866 3.70398 8.86183 3.40354 8.86183C3.20324 8.86183 2.96956 8.82866 2.76927 8.79549C3.20324 10.0892 4.40501 11.0512 5.84045 11.0512C4.70545 11.9137 3.30339 12.4444 1.7678 12.4444C1.50074 12.4444 1.23368 12.4444 1 12.4113C2.46883 13.3401 4.17133 13.8708 6.04075 13.8708C12.083 13.8708 15.3878 8.895 15.3878 4.58261C15.3878 4.44992 15.3878 4.28406 15.3878 4.15137C16.0221 3.72013 16.5896 3.1562 17.0236 2.49275C16.4227 2.75813 15.7884 2.92399 15.1208 3.02351Z" fill="#FD6003"/>
</g>
<defs>
<clipPath id="clip0_2_901">
<rect width="16.0236" height="12.8708" fill="white" transform="translate(0.724609 0.861328)"/>
</clipPath>
</defs>
</svg>
